<svg xmlns="http://www.w3.org/2000/svg" viewBox="0 0 1200 760" font-family="-apple-system,Segoe UI,Roboto,Helvetica,Arial,sans-serif">
  <rect width="1200" height="760" rx="10" fill="#f0f2f5"/>
  <rect width="1200" height="46" rx="10" fill="#1d2327"/><rect y="32" width="1200" height="14" fill="#1d2327"/>
  <circle cx="26" cy="23" r="6" fill="#ff5f57"/><circle cx="48" cy="23" r="6" fill="#febc2e"/><circle cx="70" cy="23" r="6" fill="#28c840"/>
  <text x="600" y="29" fill="#c3c4c7" font-size="14" text-anchor="middle">Add New Slider - MY Slider PRO v1.0.0</text>
  <text x="48" y="92" fill="#172033" font-size="25" font-weight="700">Add New Slider</text>
  <rect x="48" y="110" width="804" height="42" rx="4" fill="#fff" stroke="#8c8f94"/>
  <text x="62" y="137" fill="#667085" font-size="15">Homepage Slider</text>
  <rect x="48" y="172" width="804" height="438" rx="6" fill="#fff" stroke="#d5dae4"/>
  <text x="72" y="208" fill="#172033" font-size="18" font-weight="700">Slides</text>
  <text x="72" y="232" fill="#667085" font-size="13">Order the story, then open a slide to edit its content.</text>
  <rect x="650" y="194" width="178" height="34" rx="4" fill="#2271b1"/>
  <text x="739" y="216" fill="#fff" font-size="13" font-weight="700" text-anchor="middle">Add from Media Library</text>
  <rect x="72" y="254" width="756" height="250" rx="5" fill="#fff" stroke="#cfd6e4"/>
  <rect x="88" y="270" width="78" height="62" rx="4" fill="#3c7089"/>
  <path d="M88 320 L112 292 L132 312 L148 284 L166 320 Z" fill="#89b9c8"/><circle cx="145" cy="284" r="8" fill="#fde6a6"/>
  <text x="182" y="290" fill="#172033" font-size="14" font-weight="700">Harbour at first light</text>
  <text x="182" y="312" fill="#667085" font-size="12">Slide 1</text>
  <text x="755" y="292" fill="#2271b1" font-size="16">&#8592;</text><text x="784" y="292" fill="#2271b1" font-size="16">&#8594;</text><text x="808" y="292" fill="#b32d2e" font-size="13">Remove</text>
  <line x1="182" y1="344" x2="804" y2="344" stroke="#e6eaf0"/>
  <text x="182" y="370" fill="#2271b1" font-size="13" font-weight="700">Slide content</text>
  <text x="182" y="398" fill="#50575e" font-size="11" font-weight="700">HEADING</text>
  <rect x="182" y="408" width="292" height="34" rx="4" fill="#fff" stroke="#c3c4c7"/>
  <text x="194" y="430" fill="#172033" font-size="13">Find your next view</text>
  <text x="490" y="398" fill="#50575e" font-size="11" font-weight="700">BUTTON LINK</text>
  <rect x="490" y="408" width="314" height="34" rx="4" fill="#fff" stroke="#c3c4c7"/>
  <text x="502" y="430" fill="#667085" font-size="13">/collection</text>
  <text x="182" y="468" fill="#50575e" font-size="11" font-weight="700">DESCRIPTION</text>
  <rect x="182" y="478" width="622" height="18" rx="3" fill="#f7f9fc"/>
  <rect x="72" y="522" width="756" height="64" rx="5" fill="#f7f9fc" stroke="#dce2ed"/>
  <text x="88" y="548" fill="#172033" font-size="14" font-weight="700">Slider Preview</text>
  <rect x="240" y="529" width="71" height="28" rx="4" fill="#2271b1"/><text x="276" y="548" fill="#fff" font-size="12" text-anchor="middle">Desktop</text>
  <rect x="319" y="529" width="60" height="28" rx="4" fill="#fff" stroke="#c3c4c7"/><text x="349" y="548" fill="#50575e" font-size="12" text-anchor="middle">Tablet</text>
  <rect x="387" y="529" width="58" height="28" rx="4" fill="#fff" stroke="#c3c4c7"/><text x="416" y="548" fill="#50575e" font-size="12" text-anchor="middle">Phone</text>
  <rect x="876" y="172" width="276" height="438" rx="6" fill="#fff" stroke="#d5dae4"/>
  <text x="900" y="208" fill="#172033" font-size="18" font-weight="700">Slider Settings</text>
  <text x="900" y="240" fill="#50575e" font-size="12" font-weight="700">DESKTOP SLIDER HEIGHT</text>
  <rect x="900" y="248" width="228" height="30" rx="4" fill="#fff" stroke="#c3c4c7"/><text x="914" y="268" fill="#172033" font-size="13">Tall</text><text x="1110" y="268" fill="#667085" font-size="12">v</text>
  <text x="900" y="304" fill="#50575e" font-size="12" font-weight="700">MOBILE SLIDER HEIGHT</text>
  <rect x="900" y="312" width="228" height="30" rx="4" fill="#fff" stroke="#c3c4c7"/><text x="914" y="332" fill="#172033" font-size="13">Standard</text><text x="1110" y="332" fill="#667085" font-size="12">v</text>
  <text x="900" y="368" fill="#50575e" font-size="12" font-weight="700">DESKTOP CONTENT ALIGNMENT</text>
  <rect x="900" y="376" width="228" height="30" rx="4" fill="#fff" stroke="#c3c4c7"/><text x="914" y="396" fill="#172033" font-size="13">Left</text><text x="1110" y="396" fill="#667085" font-size="12">v</text>
  <text x="900" y="432" fill="#50575e" font-size="12" font-weight="700">MOBILE CONTENT ALIGNMENT</text>
  <rect x="900" y="440" width="228" height="30" rx="4" fill="#fff" stroke="#c3c4c7"/><text x="914" y="460" fill="#172033" font-size="13">Center</text><text x="1110" y="460" fill="#667085" font-size="12">v</text>
  <line x1="900" y1="486" x2="1128" y2="486" stroke="#e6eaf0"/>
  <rect x="900" y="500" width="38" height="20" rx="10" fill="#2271b1"/><circle cx="928" cy="510" r="7" fill="#fff"/><text x="950" y="515" fill="#172033" font-size="13">Show arrows</text>
  <rect x="900" y="532" width="38" height="20" rx="10" fill="#2271b1"/><circle cx="928" cy="542" r="7" fill="#fff"/><text x="950" y="547" fill="#172033" font-size="13">Show slide dots</text>
  <rect x="900" y="564" width="38" height="20" rx="10" fill="#2271b1"/><circle cx="928" cy="574" r="7" fill="#fff"/><text x="950" y="579" fill="#172033" font-size="13">Autoplay slides</text>
  <rect x="48" y="636" width="650" height="36" rx="4" fill="#172033"/>
  <text x="62" y="659" fill="#a7f3c1" font-size="13" font-family="ui-monospace,Menlo,Consolas,monospace">[myslider id="123"]</text>
  <rect x="710" y="636" width="142" height="36" rx="4" fill="#2271b1"/><text x="781" y="659" fill="#fff" font-size="13" font-weight="700" text-anchor="middle">Publish Slider</text>
  <rect x="976" y="692" width="176" height="24" rx="12" fill="#1d2327" opacity=".72"/><text x="1064" y="708" fill="#fff" font-size="11" text-anchor="middle">Illustrative mockup</text>
</svg>
