<svg xmlns="http://www.w3.org/2000/svg" viewBox="0 0 1200 760" font-family="-apple-system,Segoe UI,Roboto,Helvetica,Arial,sans-serif">
  <rect width="1200" height="760" rx="10" fill="#f6f7fb"/>
  <rect width="1200" height="52" rx="10" fill="#f0f0f1"/><rect y="36" width="1200" height="16" fill="#f0f0f1"/>
  <circle cx="26" cy="26" r="6" fill="#ff5f57"/><circle cx="48" cy="26" r="6" fill="#febc2e"/><circle cx="70" cy="26" r="6" fill="#28c840"/>
  <rect x="100" y="14" width="1080" height="24" rx="12" fill="#fff" stroke="#dcdcde"/>
  <text x="120" y="31" fill="#8c8f94" font-size="12">yoursite.com</text>
  <rect x="48" y="78" width="1104" height="604" rx="4" fill="#23495d"/>
  <path d="M48 588 L232 352 L378 488 L536 298 L728 526 L910 340 L1152 558 V682 H48 Z" fill="#5a91a2"/>
  <path d="M48 624 L260 432 L440 572 L612 398 L790 600 L1000 430 L1152 550 V682 H48 Z" fill="#2f667d"/>
  <circle cx="932" cy="190" r="46" fill="#f8db86"/>
  <rect x="48" y="78" width="1104" height="604" fill="#101d2b" opacity=".42"/>
  <text x="112" y="290" fill="#fff" font-size="56" font-weight="700">Find your next view</text>
  <text x="112" y="332" fill="#e5edf3" font-size="19">Responsive slide content stays calm, readable, and ready to act on.</text>
  <rect x="112" y="370" width="150" height="46" rx="4" fill="#fff"/>
  <text x="187" y="399" fill="#172033" font-size="14" font-weight="700" text-anchor="middle">View collection</text>
  <circle cx="84" cy="380" r="22" fill="#152634" opacity=".68" stroke="#fff"/><text x="84" y="390" fill="#fff" font-size="34" text-anchor="middle">&#8249;</text>
  <circle cx="1116" cy="380" r="22" fill="#152634" opacity=".68" stroke="#fff"/><text x="1116" y="390" fill="#fff" font-size="34" text-anchor="middle">&#8250;</text>
  <circle cx="574" cy="644" r="5" fill="#fff"/><circle cx="594" cy="644" r="5" fill="none" stroke="#fff"/><circle cx="614" cy="644" r="5" fill="none" stroke="#fff"/>
  <rect x="976" y="700" width="176" height="24" rx="12" fill="#1d2327" opacity=".72"/><text x="1064" y="716" fill="#fff" font-size="11" text-anchor="middle">Illustrative mockup</text>
</svg>
